<svg xmlns="http://www.w3.org/2000/svg" viewBox="0 0 48 60" x="0px" y="0px"><title>Business vol.1</title><g data-name="Layer 6"><path d="M44.26758,24.96533a.99974.99974,0,0,0-1,1,19.30843,19.30843,0,1,1-7.19043-14.99151l-7.89063,1.67706a.9999.9999,0,1,0,.416,1.956l9.78223-2.0791a1.00052,1.00052,0,0,0,.7705-1.186L37.07715,1.55908a1.00038,1.00038,0,0,0-1.957.416l1.45636,6.85577a21.25689,21.25689,0,1,0,8.6911,17.13446A.99974.99974,0,0,0,44.26758,24.96533Z"/><path d="M23.65137,39.144a.99974.99974,0,0,0,1-1v-2.1568a6.16129,6.16129,0,0,0,2.7207-.94476,4.58861,4.58861,0,0,0,2.0166-4.50439c-.36133-3.40967-3.90625-4.93067-6.75488-6.15332-1.3418-.5752-3.17871-1.36329-3.28125-1.95069-.03418-.19629.1748-.63623.86621-1.2832,1.36133-1.27393,2.65723-1.83106,3.86816-1.665a5.0139,5.0139,0,0,1,3.085,2.2417,1.00013,1.00013,0,0,0,1.72265-1.0166,6.98773,6.98773,0,0,0-4.50879-3.20227V14.646a1,1,0,0,0-2,0v2.96881a8.10146,8.10146,0,0,0-3.53418,2.07611c-1.16211,1.08789-1.64258,2.09814-1.46875,3.08887.28907,1.65283,2.22266,2.48242,4.46192,3.44287,2.49218,1.06982,5.31738,2.28173,5.55566,4.52636a2.60929,2.60929,0,0,1-1.14062,2.63184,5.04753,5.04753,0,0,1-4.876.0835,3.038,3.038,0,0,1-1.71094-2.80909,1.00076,1.00076,0,0,0-.98828-1.01172h-.01172a1.00077,1.00077,0,0,0-1,.98829,5.04065,5.04065,0,0,0,2.75879,4.5913,6.86665,6.86665,0,0,0,2.21973.72028V38.144A.99973.99973,0,0,0,23.65137,39.144Z"/></g><text x="0" y="63" fill="#000000" font-size="5px" font-weight="bold" font-family="'Helvetica Neue', Helvetica, Arial-Unicode, Arial, Sans-serif">Created by Mega Agustina</text><text x="0" y="68" fill="#000000" font-size="5px" font-weight="bold" font-family="'Helvetica Neue', Helvetica, Arial-Unicode, Arial, Sans-serif">from the Noun Project</text></svg>